<svg width="351" height="118" viewBox="0 0 351 118" fill="none" xmlns="http://www.w3.org/2000/svg">
<g filter="url(#filter0_bd)">
<circle cx="67" cy="35" r="35" fill="#F52626"/>
</g>
<g filter="url(#filter1_bd)">
<circle cx="95" cy="75" r="35" fill="#3D6ECE"/>
</g>
<g filter="url(#filter2_bd)">
<circle cx="39" cy="65" r="35" fill="#9655AD"/>
</g>
<path d="M153.744 85H171.852V83.272H155.616V73.156H170.052V71.428H155.616V61.528H171.672V59.8H153.744V85ZM185.214 85.432C188.598 85.432 190.83 83.92 192.702 81.796L191.478 80.716C189.93 82.444 187.914 83.776 185.322 83.776C181.11 83.776 177.762 80.248 177.762 75.82V75.748C177.762 71.356 181.002 67.864 185.178 67.864C187.914 67.864 189.714 69.268 191.298 70.888L192.558 69.592C190.83 67.792 188.67 66.208 185.214 66.208C179.958 66.208 175.854 70.672 175.854 75.82V75.892C175.854 81.04 179.922 85.432 185.214 85.432ZM197.932 85H199.696V58.72H197.932V85ZM206.681 61.852H208.877V59.44H206.681V61.852ZM206.897 85H208.661V66.64H206.897V85ZM215.61 90.76H217.374V81.04C218.886 83.344 221.262 85.432 224.934 85.432C229.362 85.432 233.862 81.796 233.862 75.82V75.748C233.862 69.772 229.362 66.208 224.934 66.208C221.298 66.208 218.958 68.332 217.374 70.744V66.64H215.61V90.76ZM224.754 83.74C220.938 83.74 217.266 80.572 217.266 75.856V75.784C217.266 71.104 220.938 67.9 224.754 67.9C228.606 67.9 231.954 70.996 231.954 75.82V75.892C231.954 80.824 228.75 83.74 224.754 83.74ZM245.315 85.36C248.843 85.36 251.651 83.272 251.651 79.996V79.924C251.651 76.684 248.555 75.604 245.603 74.776C242.975 74.02 240.491 73.264 240.491 71.212V71.14C240.491 69.304 242.147 67.936 244.667 67.936C246.611 67.936 248.627 68.656 250.319 69.772L251.255 68.296C249.419 67.072 246.935 66.28 244.739 66.28C241.175 66.28 238.691 68.404 238.691 71.356V71.428C238.691 74.704 242.003 75.604 244.991 76.468C247.547 77.188 249.851 77.98 249.851 80.14V80.212C249.851 82.336 247.907 83.704 245.423 83.704C243.083 83.704 240.851 82.84 238.835 81.292L237.791 82.696C239.735 84.28 242.651 85.36 245.315 85.36ZM265.01 85.432C268.538 85.432 270.734 83.992 272.606 81.976L271.382 80.896C269.87 82.516 267.926 83.776 265.082 83.776C261.482 83.776 258.206 81.112 257.882 76.54H273.11C273.146 76.252 273.146 76.144 273.146 75.82C273.146 70.384 269.87 66.208 264.722 66.208C259.754 66.208 256.01 70.456 256.01 75.784V75.856C256.01 81.58 260.186 85.432 265.01 85.432ZM257.882 74.956C258.206 70.888 261.014 67.828 264.65 67.828C268.862 67.828 270.986 71.248 271.238 74.956H257.882Z" fill="black"/>
<path d="M151.456 113H154.718C157.798 113 159.926 110.858 159.926 108.1V108.072C159.926 105.314 157.798 103.2 154.718 103.2H151.456V113ZM152.184 112.328V103.872H154.718C157.448 103.872 159.17 105.776 159.17 108.1V108.128C159.17 110.466 157.448 112.328 154.718 112.328H152.184ZM164.423 113.168C165.781 113.168 166.663 112.496 167.153 111.81V113H167.825V108.548C167.825 107.666 167.573 107.008 167.097 106.532C166.579 106.014 165.809 105.748 164.843 105.748C163.863 105.748 163.093 106 162.309 106.364L162.561 106.966C163.219 106.63 163.933 106.392 164.801 106.392C166.271 106.392 167.153 107.134 167.153 108.576V108.884C166.467 108.702 165.781 108.576 164.787 108.576C162.939 108.576 161.665 109.416 161.665 110.9V110.928C161.665 112.412 163.093 113.168 164.423 113.168ZM164.465 112.524C163.373 112.524 162.393 111.922 162.393 110.886V110.858C162.393 109.864 163.233 109.192 164.745 109.192C165.767 109.192 166.565 109.36 167.167 109.514V110.326C167.167 111.628 165.921 112.524 164.465 112.524ZM172.604 113.126C173.052 113.126 173.402 113.042 173.766 112.874V112.23C173.36 112.412 173.066 112.482 172.716 112.482C171.89 112.482 171.288 112.118 171.288 111.096V106.49H173.794V105.86H171.288V103.578H170.602V105.86H169.566V106.49H170.602V111.166C170.602 112.524 171.498 113.126 172.604 113.126ZM177.999 113.168C179.357 113.168 180.239 112.496 180.729 111.81V113H181.401V108.548C181.401 107.666 181.149 107.008 180.673 106.532C180.155 106.014 179.385 105.748 178.419 105.748C177.439 105.748 176.669 106 175.885 106.364L176.137 106.966C176.795 106.63 177.509 106.392 178.377 106.392C179.847 106.392 180.729 107.134 180.729 108.576V108.884C180.043 108.702 179.357 108.576 178.363 108.576C176.515 108.576 175.241 109.416 175.241 110.9V110.928C175.241 112.412 176.669 113.168 177.999 113.168ZM178.041 112.524C176.949 112.524 175.969 111.922 175.969 110.886V110.858C175.969 109.864 176.809 109.192 178.321 109.192C179.343 109.192 180.141 109.36 180.743 109.514V110.326C180.743 111.628 179.497 112.524 178.041 112.524ZM191.216 113.168C192.532 113.168 193.4 112.58 194.128 111.754L193.652 111.334C193.05 112.006 192.266 112.524 191.258 112.524C189.62 112.524 188.318 111.152 188.318 109.43V109.402C188.318 107.694 189.578 106.336 191.202 106.336C192.266 106.336 192.966 106.882 193.582 107.512L194.072 107.008C193.4 106.308 192.56 105.692 191.216 105.692C189.172 105.692 187.576 107.428 187.576 109.43V109.458C187.576 111.46 189.158 113.168 191.216 113.168ZM198.869 113.168C200.241 113.168 201.095 112.608 201.823 111.824L201.347 111.404C200.759 112.034 200.003 112.524 198.897 112.524C197.497 112.524 196.223 111.488 196.097 109.71H202.019C202.033 109.598 202.033 109.556 202.033 109.43C202.033 107.316 200.759 105.692 198.757 105.692C196.825 105.692 195.369 107.344 195.369 109.416V109.444C195.369 111.67 196.993 113.168 198.869 113.168ZM196.097 109.094C196.223 107.512 197.315 106.322 198.729 106.322C200.367 106.322 201.193 107.652 201.291 109.094H196.097ZM204.034 113H204.72V108.87C204.72 107.386 205.798 106.322 207.198 106.322C208.64 106.322 209.466 107.288 209.466 108.758V113H210.152V108.632C210.152 106.924 209.102 105.692 207.296 105.692C205.994 105.692 205.196 106.35 204.72 107.19V105.86H204.034V113ZM215 113.126C215.448 113.126 215.798 113.042 216.162 112.874V112.23C215.756 112.412 215.462 112.482 215.112 112.482C214.286 112.482 213.684 112.118 213.684 111.096V106.49H216.19V105.86H213.684V103.578H212.998V105.86H211.962V106.49H212.998V111.166C212.998 112.524 213.894 113.126 215 113.126ZM221.031 113.168C222.403 113.168 223.257 112.608 223.985 111.824L223.509 111.404C222.921 112.034 222.165 112.524 221.059 112.524C219.659 112.524 218.385 111.488 218.259 109.71H224.181C224.195 109.598 224.195 109.556 224.195 109.43C224.195 107.316 222.921 105.692 220.919 105.692C218.987 105.692 217.531 107.344 217.531 109.416V109.444C217.531 111.67 219.155 113.168 221.031 113.168ZM218.259 109.094C218.385 107.512 219.477 106.322 220.891 106.322C222.529 106.322 223.355 107.652 223.453 109.094H218.259ZM226.197 113H226.883V110.074C226.883 107.75 228.325 106.504 229.977 106.504H230.047V105.748C228.633 105.692 227.443 106.616 226.883 107.89V105.86H226.197V113ZM236.419 113H237.105V106.49H239.597V105.86H237.105V105.174C237.105 103.956 237.567 103.368 238.547 103.368C238.911 103.368 239.205 103.424 239.611 103.55V102.906C239.289 102.794 238.981 102.738 238.547 102.738C237.917 102.738 237.413 102.934 237.049 103.298C236.643 103.704 236.419 104.348 236.419 105.16V105.86H235.383V106.49H236.419V113ZM244.099 113.168C246.227 113.168 247.781 111.432 247.781 109.43V109.402C247.781 107.4 246.241 105.692 244.127 105.692C241.999 105.692 240.445 107.428 240.445 109.43V109.458C240.445 111.46 241.985 113.168 244.099 113.168ZM244.127 112.524C242.475 112.524 241.187 111.152 241.187 109.43V109.402C241.187 107.722 242.405 106.336 244.099 106.336C245.751 106.336 247.039 107.708 247.039 109.43V109.458C247.039 111.138 245.821 112.524 244.127 112.524ZM249.89 113H250.576V110.074C250.576 107.75 252.018 106.504 253.67 106.504H253.74V105.748C252.326 105.692 251.136 106.616 250.576 107.89V105.86H249.89V113ZM259.693 113H260.379V108.87C260.379 107.386 261.457 106.322 262.857 106.322C264.299 106.322 265.125 107.288 265.125 108.758V113H265.811V108.632C265.811 106.924 264.761 105.692 262.955 105.692C261.653 105.692 260.855 106.35 260.379 107.19V102.78H259.693V113ZM270.449 113.168C271.807 113.168 272.689 112.496 273.179 111.81V113H273.851V108.548C273.851 107.666 273.599 107.008 273.123 106.532C272.605 106.014 271.835 105.748 270.869 105.748C269.889 105.748 269.119 106 268.335 106.364L268.587 106.966C269.245 106.63 269.959 106.392 270.827 106.392C272.297 106.392 273.179 107.134 273.179 108.576V108.884C272.493 108.702 271.807 108.576 270.813 108.576C268.965 108.576 267.691 109.416 267.691 110.9V110.928C267.691 112.412 269.119 113.168 270.449 113.168ZM270.491 112.524C269.399 112.524 268.419 111.922 268.419 110.886V110.858C268.419 109.864 269.259 109.192 270.771 109.192C271.793 109.192 272.591 109.36 273.193 109.514V110.326C273.193 111.628 271.947 112.524 270.491 112.524ZM276.318 115.24H277.004V111.46C277.592 112.356 278.516 113.168 279.944 113.168C281.666 113.168 283.416 111.754 283.416 109.43V109.402C283.416 107.078 281.666 105.692 279.944 105.692C278.53 105.692 277.62 106.518 277.004 107.456V105.86H276.318V115.24ZM279.874 112.51C278.39 112.51 276.962 111.278 276.962 109.444V109.416C276.962 107.596 278.39 106.35 279.874 106.35C281.372 106.35 282.674 107.554 282.674 109.43V109.458C282.674 111.376 281.428 112.51 279.874 112.51ZM285.56 115.24H286.246V111.46C286.834 112.356 287.758 113.168 289.186 113.168C290.908 113.168 292.658 111.754 292.658 109.43V109.402C292.658 107.078 290.908 105.692 289.186 105.692C287.772 105.692 286.862 106.518 286.246 107.456V105.86H285.56V115.24ZM289.116 112.51C287.632 112.51 286.204 111.278 286.204 109.444V109.416C286.204 107.596 287.632 106.35 289.116 106.35C290.614 106.35 291.916 107.554 291.916 109.43V109.458C291.916 111.376 290.67 112.51 289.116 112.51ZM295.315 115.282C296.337 115.282 297.065 114.75 297.695 113.252L300.789 105.86H300.033L297.457 112.244L294.489 105.86H293.691L297.121 112.958C296.589 114.204 296.099 114.638 295.357 114.638C294.825 114.638 294.517 114.554 294.139 114.372L293.901 114.974C294.377 115.184 294.769 115.282 295.315 115.282ZM309.884 113.168C311.298 113.168 312.208 112.342 312.824 111.404V113H313.51V102.78H312.824V107.4C312.236 106.504 311.312 105.692 309.884 105.692C308.162 105.692 306.412 107.106 306.412 109.43V109.458C306.412 111.782 308.162 113.168 309.884 113.168ZM309.954 112.51C308.456 112.51 307.154 111.306 307.154 109.43V109.402C307.154 107.484 308.4 106.35 309.954 106.35C311.438 106.35 312.866 107.582 312.866 109.416V109.444C312.866 111.264 311.438 112.51 309.954 112.51ZM319.126 113.168C320.498 113.168 321.352 112.608 322.08 111.824L321.604 111.404C321.016 112.034 320.26 112.524 319.154 112.524C317.754 112.524 316.48 111.488 316.354 109.71H322.276C322.29 109.598 322.29 109.556 322.29 109.43C322.29 107.316 321.016 105.692 319.014 105.692C317.082 105.692 315.626 107.344 315.626 109.416V109.444C315.626 111.67 317.25 113.168 319.126 113.168ZM316.354 109.094C316.48 107.512 317.572 106.322 318.986 106.322C320.624 106.322 321.45 107.652 321.548 109.094H316.354ZM326.415 113.056H327.003L330.209 105.86H329.439L326.709 112.23L324.007 105.86H323.209L326.415 113.056ZM334.122 113.14C335.494 113.14 336.586 112.328 336.586 111.054V111.026C336.586 109.766 335.382 109.346 334.234 109.024C333.212 108.73 332.246 108.436 332.246 107.638V107.61C332.246 106.896 332.89 106.364 333.87 106.364C334.626 106.364 335.41 106.644 336.068 107.078L336.432 106.504C335.718 106.028 334.752 105.72 333.898 105.72C332.512 105.72 331.546 106.546 331.546 107.694V107.722C331.546 108.996 332.834 109.346 333.996 109.682C334.99 109.962 335.886 110.27 335.886 111.11V111.138C335.886 111.964 335.13 112.496 334.164 112.496C333.254 112.496 332.386 112.16 331.602 111.558L331.196 112.104C331.952 112.72 333.086 113.14 334.122 113.14Z" fill="#999999"/>
<defs>
<filter id="filter0_bd" x="28" y="-4" width="78" height="82" filterUnits="userSpaceOnUse" color-interpolation-filters="sRGB">
<feFlood flood-opacity="0" result="BackgroundImageFix"/>
<feGaussianBlur in="BackgroundImage" stdDeviation="2"/>
<feComposite in2="SourceAlpha" operator="in" result="effect1_backgroundBlur"/>
<feColorMatrix in="SourceAlpha" type="matrix" values="0 0 0 0 0 0 0 0 0 0 0 0 0 0 0 0 0 0 127 0"/>
<feOffset dy="4"/>
<feGaussianBlur stdDeviation="2"/>
<feColorMatrix type="matrix" values="0 0 0 0 0 0 0 0 0 0 0 0 0 0 0 0 0 0 0.25 0"/>
<feBlend mode="normal" in2="effect1_backgroundBlur" result="effect2_dropShadow"/>
<feBlend mode="normal" in="SourceGraphic" in2="effect2_dropShadow" result="shape"/>
</filter>
<filter id="filter1_bd" x="56" y="36" width="78" height="82" filterUnits="userSpaceOnUse" color-interpolation-filters="sRGB">
<feFlood flood-opacity="0" result="BackgroundImageFix"/>
<feGaussianBlur in="BackgroundImage" stdDeviation="2"/>
<feComposite in2="SourceAlpha" operator="in" result="effect1_backgroundBlur"/>
<feColorMatrix in="SourceAlpha" type="matrix" values="0 0 0 0 0 0 0 0 0 0 0 0 0 0 0 0 0 0 127 0"/>
<feOffset dy="4"/>
<feGaussianBlur stdDeviation="2"/>
<feColorMatrix type="matrix" values="0 0 0 0 0 0 0 0 0 0 0 0 0 0 0 0 0 0 0.25 0"/>
<feBlend mode="normal" in2="effect1_backgroundBlur" result="effect2_dropShadow"/>
<feBlend mode="normal" in="SourceGraphic" in2="effect2_dropShadow" result="shape"/>
</filter>
<filter id="filter2_bd" x="0" y="26" width="78" height="82" filterUnits="userSpaceOnUse" color-interpolation-filters="sRGB">
<feFlood flood-opacity="0" result="BackgroundImageFix"/>
<feGaussianBlur in="BackgroundImage" stdDeviation="2"/>
<feComposite in2="SourceAlpha" operator="in" result="effect1_backgroundBlur"/>
<feColorMatrix in="SourceAlpha" type="matrix" values="0 0 0 0 0 0 0 0 0 0 0 0 0 0 0 0 0 0 127 0"/>
<feOffset dy="4"/>
<feGaussianBlur stdDeviation="2"/>
<feColorMatrix type="matrix" values="0 0 0 0 0 0 0 0 0 0 0 0 0 0 0 0 0 0 0.25 0"/>
<feBlend mode="normal" in2="effect1_backgroundBlur" result="effect2_dropShadow"/>
<feBlend mode="normal" in="SourceGraphic" in2="effect2_dropShadow" result="shape"/>
</filter>
</defs>
</svg>
